HIERARCHY
ROOT Hips
{
	OFFSET 0.000000 0.000000 0.000000
	CHANNELS 6 Xposition Yposition Zposition Zrotation Yrotation Xrotation 
	JOINT LowerBack
	{
		OFFSET 0.000000 0.000000 0.000000
		CHANNELS 3 Zrotation Yrotation Xrotation
		JOINT Spine
		{
			OFFSET 0.028270 2.035590 -0.193380
			CHANNELS 3 Zrotation Yrotation Xrotation
			JOINT Spine1
			{
				OFFSET 0.056720 2.048850 -0.042750
				CHANNELS 3 Zrotation Yrotation Xrotation
				JOINT Neck
				{
					OFFSET 0.000000 0.000000 0.000000
					CHANNELS 3 Zrotation Yrotation Xrotation
					JOINT Neck1
					{
						OFFSET -0.054170 1.746240 0.172020
						CHANNELS 3 Zrotation Yrotation Xrotation
						JOINT Head
						{
							OFFSET 0.104070 1.761360 -0.123970
							CHANNELS 3 Zrotation Yrotation Xrotation
							End Site
							{
								OFFSET 0.000000 0.000000 0.000000
							}
						}
					}
				}
				JOINT LeftShoulder
				{
					OFFSET 0.000000 0.000000 0.000000
					CHANNELS 3 Zrotation Yrotation Xrotation
					JOINT LeftArm
					{
						OFFSET 3.362410 1.200890 -0.311210
						CHANNELS 3 Zrotation Yrotation Xrotation
						JOINT LeftForeArm
						{
							OFFSET 4.983000 -0.000000 -0.000000
							CHANNELS 3 Zrotation Yrotation Xrotation
							JOINT LeftHand
							{
								OFFSET 3.483560 -0.000000 -0.000000
								CHANNELS 3 Zrotation Yrotation Xrotation
								JOINT LeftFingerBase
								{
									OFFSET 0.000000 0.000000 0.000000
									CHANNELS 3 Zrotation Yrotation Xrotation
									JOINT LeftHandIndex1
									{
										OFFSET 0.715260 -0.000000 -0.000000
										CHANNELS 3 Zrotation Yrotation Xrotation
										End Site
										{
											OFFSET 0.000000 0.000000 0.000000
										}
									}
								}
								JOINT LThumb
								{
									OFFSET 0.000000 0.000000 0.000000
									CHANNELS 3 Zrotation Yrotation Xrotation
									End Site
									{
										OFFSET 0.000000 0.000000 0.000000
									}
								}
							}
						}
					}
				}
				JOINT RightShoulder
				{
					OFFSET 0.000000 0.000000 0.000000
					CHANNELS 3 Zrotation Yrotation Xrotation
					JOINT RightArm
					{
						OFFSET -3.136600 1.374050 -0.404650
						CHANNELS 3 Zrotation Yrotation Xrotation
						JOINT RightForeArm
						{
							OFFSET -5.241900 -0.000000 -0.000000
							CHANNELS 3 Zrotation Yrotation Xrotation
							JOINT RightHand
							{
								OFFSET -3.444170 -0.000000 -0.000000
								CHANNELS 3 Zrotation Yrotation Xrotation
								JOINT RightFingerBase
								{
									OFFSET 0.000000 0.000000 0.000000
									CHANNELS 3 Zrotation Yrotation Xrotation
									JOINT RightHandIndex1
									{
										OFFSET -0.622530 -0.000000 -0.000000
										CHANNELS 3 Zrotation Yrotation Xrotation
										End Site
										{
											OFFSET 0.000000 0.000000 0.000000
										}
									}
								}
								JOINT RThumb
								{
									OFFSET 0.000000 0.000000 0.000000
									CHANNELS 3 Zrotation Yrotation Xrotation
									End Site
									{
										OFFSET 0.000000 0.000000 0.000000
									}
								}
							}
						}
					}
				}
			}
		}
	}
}
}
MOTION
Frames: 15
Frame Time: 0.008333
1.481455 17.384774 1.128912 174.056241 -87.466978 -163.810780 -2.468469 -0.008465 -5.334687 -1.151954 0.103241 -4.791818 -5.628067 0.176470 -5.502016 6.002613 0.058152 5.552191 -2.464605 -0.354392 3.636043 0.000000 0.000000 0.000000 10.329705 3.526315 -4.253057 -75.371329 -47.787249 7.143547 177.730825 -61.663706 179.780729 11.278694 -7.807162 -0.889880 -0.026458 1.161090 -0.000000 0.000000 0.000000 0.000000 0.000000 0.000000 0.000000 -1.059845 1.212760 -6.605981 86.267984 50.799228 11.464738 -175.672766 62.828888 179.634272 -20.675913 16.784421 -3.330380 0.112913 -1.188950 -0.000000 0.000000 0.000000 0.000000 0.000000 0.000000 0.000000 
1.474535 17.385519 1.107889 173.507085 -87.922336 -163.106581 -2.596614 -0.063466 -5.380939 -1.163549 0.060290 -4.784163 -5.606006 0.131862 -5.434658 6.029881 -0.086928 5.438274 -2.441004 -0.351553 3.604800 0.000000 0.000000 0.000000 10.223180 3.645333 -4.215735 -75.519436 -47.335772 7.196174 177.771333 -61.820307 179.781522 11.299057 -7.763009 -0.886852 -0.029350 1.156986 -0.000000 0.000000 0.000000 0.000000 0.000000 0.000000 0.000000 -1.221373 1.071843 -6.604092 86.148161 50.765448 11.288170 -175.672760 62.747971 179.633662 -20.789834 16.703671 -3.334239 0.118140 -1.188214 -0.000000 0.000000 0.000000 0.000000 0.000000 0.000000 0.000000 
1.467552 17.386334 1.085540 172.815649 -88.366669 -162.226035 -2.740717 -0.123694 -5.436021 -1.176276 0.013469 -4.776583 -5.579886 0.082985 -5.360429 6.064596 -0.240399 5.307424 -2.410256 -0.348107 3.568834 0.000000 0.000000 0.000000 10.116721 3.797796 -4.172740 -75.676989 -46.838149 7.261190 177.807156 -61.989261 179.781511 11.380649 -7.703439 -0.887127 -0.034076 1.152029 -0.000000 0.000000 0.000000 0.000000 0.000000 0.000000 0.000000 -1.417835 0.924471 -6.604802 86.032353 50.716423 11.090513 -175.669396 62.639080 179.632885 -20.915136 16.620595 -3.339493 0.123964 -1.187846 -0.000000 0.000000 0.000000 0.000000 0.000000 0.000000 0.000000 
1.461215 17.387189 1.061695 171.815126 -88.803255 -161.010105 -2.899290 -0.188920 -5.491545 -1.190843 -0.037061 -4.767970 -5.554053 0.030243 -5.282002 6.102765 -0.402166 5.160904 -2.373089 -0.344098 3.528332 0.000000 0.000000 0.000000 9.983034 3.961563 -4.116604 -75.778760 -46.310151 7.314929 177.845713 -62.158149 179.781087 11.499067 -7.640330 -0.889804 -0.040449 1.146638 -0.000000 0.000000 0.000000 0.000000 0.000000 0.000000 0.000000 -1.648377 0.771805 -6.605012 85.919905 50.652430 10.868620 -175.662372 62.501571 179.631918 -21.047608 16.541126 -3.346637 0.130170 -1.188002 -0.000000 0.000000 0.000000 0.000000 0.000000 0.000000 0.000000 
1.455559 17.388122 1.036117 170.309389 -89.235443 -159.254505 -3.067175 -0.257876 -5.553571 -1.207311 -0.090812 -4.759752 -5.533159 -0.025666 -5.201115 6.140263 -0.574737 4.999453 -2.331289 -0.339621 3.483460 0.000000 0.000000 0.000000 9.797056 4.107793 -4.040219 -75.760709 -45.755964 7.325928 177.893954 -62.311516 179.780625 11.636532 -7.570138 -0.893280 -0.048582 1.140760 -0.000000 0.000000 0.000000 0.000000 0.000000 0.000000 0.000000 -1.909073 0.612153 -6.600460 85.808981 50.571342 10.623694 -175.652494 62.338527 179.630766 -21.185152 16.468712 -3.355875 0.136650 -1.188729 -0.000000 0.000000 0.000000 0.000000 0.000000 0.000000 0.000000 
1.450798 17.389090 1.008736 168.006416 -89.665357 -156.666261 -3.232825 -0.329016 -5.624513 -1.224405 -0.147567 -4.752885 -5.521466 -0.084087 -5.120302 6.171525 -0.759566 4.824684 -2.287422 -0.334817 3.434599 0.000000 0.000000 0.000000 9.535837 4.207755 -3.937068 -75.563916 -45.175677 7.258178 177.959085 -62.426662 179.780609 11.765347 -7.494687 -0.895352 -0.058312 1.134565 -0.000000 0.000000 0.000000 0.000000 0.000000 0.000000 0.000000 -2.193570 0.444651 -6.587304 85.697863 50.475149 10.361763 -175.640785 62.154062 179.629461 -21.324317 16.405742 -3.367105 0.143253 -1.190030 -0.000000 0.000000 0.000000 0.000000 0.000000 0.000000 0.000000 
1.447036 17.389950 0.979627 -15.304696 -89.915900 26.960974 -3.379016 -0.397455 -5.704087 -1.239894 -0.204398 -4.747976 -5.522079 -0.141527 -5.041983 6.190129 -0.958034 4.637359 -2.244871 -0.329863 3.381911 0.000000 0.000000 0.000000 9.182314 4.239243 -3.801973 -75.143514 -44.559607 7.073661 178.046789 -62.478620 179.781474 11.860703 -7.412001 -0.894018 -0.069481 1.128122 -0.000000 0.000000 0.000000 0.000000 0.000000 0.000000 0.000000 -2.491883 0.270208 -6.562136 85.585024 50.369309 10.095073 -175.629889 61.960769 179.628056 -21.462721 16.352831 -3.380229 0.149862 -1.191783 -0.000000 0.000000 0.000000 0.000000 0.000000 0.000000 0.000000 
1.444131 17.390528 0.949097 -19.229111 -89.550401 31.228563 -3.501896 -0.452729 -5.796386 -1.254604 -0.251690 -4.746679 -5.535207 -0.188351 -4.968009 6.189911 -1.171351 4.437565 -2.207584 -0.324969 3.325443 0.000000 0.000000 0.000000 8.735625 4.191940 -3.633140 -74.483935 -43.878827 6.736785 178.159301 -62.436829 179.783563 11.898647 -7.324442 -0.887771 -0.081664 1.121660 -0.000000 0.000000 0.000000 0.000000 0.000000 0.000000 0.000000 -2.791773 0.092230 -6.523237 85.474217 50.263189 9.846113 -175.623643 61.770677 179.626640 -21.598642 16.308618 -3.394546 0.156527 -1.193850 -0.000000 0.000000 0.000000 0.000000 0.000000 0.000000 0.000000 
1.441751 17.390649 0.917649 -21.835938 -89.327270 34.197922 -3.652088 -0.485484 -5.903957 -1.280239 -0.274952 -4.750480 -5.556060 -0.211436 -4.899899 6.166135 -1.400682 4.223991 -2.179779 -0.320383 3.264834 0.000000 0.000000 0.000000 8.211971 4.068843 -3.432285 -73.600993 -43.084582 6.217763 178.294489 -62.272932 179.787027 11.865015 -7.233557 -0.875814 -0.094330 1.115317 -0.000000 0.000000 0.000000 0.000000 0.000000 0.000000 0.000000 -3.076254 -0.083512 -6.470137 85.374745 50.169955 9.647385 -175.628595 61.603040 179.625361 -21.731881 16.269652 -3.409449 0.163477 -1.195992 -0.000000 0.000000 0.000000 0.000000 0.000000 0.000000 0.000000 
1.439484 17.390071 0.885997 -20.359643 -89.352366 33.091368 -3.921604 -0.497402 -6.026029 -1.335051 -0.265569 -4.759906 -5.575165 -0.204526 -4.838700 6.116793 -1.647219 3.994744 -2.165363 -0.316363 3.199493 0.000000 0.000000 0.000000 7.645958 3.884092 -3.204757 -72.547649 -42.109394 5.497954 178.446440 -61.956307 179.791788 11.758179 -7.139958 -0.858349 -0.106994 1.109172 -0.000000 0.000000 0.000000 0.000000 0.000000 0.000000 0.000000 -3.327288 -0.254376 -6.405136 85.305201 50.104850 9.542510 -175.651451 61.474147 179.624376 -21.862937 16.231981 -3.424132 0.171060 -1.197980 -0.000000 0.000000 0.000000 0.000000 0.000000 0.000000 0.000000 
1.436584 17.388703 0.854948 -14.974100 -89.694998 28.075013 -4.309745 -0.480094 -6.168618 -1.417026 -0.215454 -4.777082 -5.583316 -0.160411 -4.784962 6.042856 -1.912914 3.745507 -2.168296 -0.313095 3.128368 0.000000 0.000000 0.000000 7.089848 3.664621 -2.959500 -71.423303 -40.861946 4.574743 178.608389 -61.460501 179.797617 11.587554 -7.047590 -0.836571 -0.119318 1.103273 -0.000000 0.000000 0.000000 0.000000 0.000000 0.000000 0.000000 -3.527313 -0.415519 -6.332378 85.287247 50.084228 9.583972 -175.699247 61.405909 179.623812 -21.994162 16.190852 -3.438195 0.179651 -1.199587 -0.000000 0.000000 0.000000 0.000000 0.000000 0.000000 0.000000 
1.432253 17.386449 0.825274 171.222492 -89.663355 -157.761796 -4.697129 -0.428430 -6.336036 -1.498074 -0.132530 -4.803668 -5.573613 -0.084888 -4.739060 5.949247 -2.199533 3.471044 -2.192228 -0.310678 3.050286 0.000000 0.000000 0.000000 6.605383 3.439669 -2.706336 -70.361916 -39.237666 3.459939 178.773936 -60.761122 179.804132 11.376699 -6.958748 -0.812465 -0.131406 1.097528 -0.000000 0.000000 0.000000 0.000000 0.000000 0.000000 0.000000 -3.661624 -0.565012 -6.258664 85.344297 50.122597 9.829537 -175.776446 61.415465 179.623723 -22.128205 16.142629 -3.451137 0.189529 -1.200665 -0.000000 0.000000 0.000000 0.000000 0.000000 0.000000 0.000000 
1.425685 17.383368 0.797729 176.192252 -88.786261 -162.387131 -5.004953 -0.369245 -6.526085 -1.555916 -0.050504 -4.839123 -5.535264 -0.009209 -4.702686 5.845194 -2.510764 3.166898 -2.239068 -0.309171 2.964151 0.000000 0.000000 0.000000 6.259763 3.219922 -2.453271 -69.507691 -37.122095 2.167994 178.933815 -59.840169 179.810810 11.159851 -6.874652 -0.788716 -0.143483 1.091630 -0.000000 0.000000 0.000000 0.000000 0.000000 0.000000 0.000000 -3.719369 -0.710897 -6.191220 85.506822 50.226010 10.339571 -175.885830 61.516971 179.624148 -22.267951 16.084267 -3.462864 0.200918 -1.201070 -0.000000 0.000000 0.000000 0.000000 0.000000 0.000000 0.000000 
1.416127 17.379630 0.772968 179.759976 -87.683623 -165.632317 -5.231859 -0.329396 -6.732734 -1.584964 0.005398 -4.883066 -5.453543 0.041908 -4.681312 5.742004 -2.851628 2.830714 -2.309679 -0.308675 2.869425 0.000000 0.000000 0.000000 6.115285 2.996723 -2.204836 -68.988275 -34.390939 0.699644 179.072136 -58.679283 179.817003 10.978660 -6.802426 -0.768915 -0.155541 1.085165 -0.000000 0.000000 0.000000 0.000000 0.000000 0.000000 0.000000 -3.690064 -0.854368 -6.135011 85.810209 50.396189 11.173777 -176.032218 61.724006 179.625151 -22.415964 16.013909 -3.473472 0.214272 -1.200789 -0.000000 0.000000 0.000000 0.000000 0.000000 0.000000 0.000000 
1.402255 17.375407 0.751110 -177.801562 -86.328296 -167.756172 -5.400654 -0.327606 -6.974287 -1.585453 0.019307 -4.940417 -5.314038 0.051853 -4.681998 5.655373 -3.226534 2.460616 -2.402570 -0.309215 2.766005 0.000000 0.000000 0.000000 6.226631 2.742216 -1.959232 -68.904871 -30.907959 -0.970913 179.163960 -57.263216 179.822172 10.869738 -6.739543 -0.754952 -0.166842 1.077056 -0.000000 0.000000 0.000000 0.000000 0.000000 0.000000 0.000000 -3.570994 -0.984758 -6.093950 86.299370 50.616929 12.387644 -176.220570 62.039387 179.626822 -22.574848 15.928761 -3.482748 0.230405 -1.200064 -0.000000 0.000000 0.000000 0.000000 0.000000 0.000000 0.000000 
